<?xml version="1.0" encoding="utf-8"?>
<!-- Generator: Adobe Illustrator 23.0.0, SVG Export Plug-In . SVG Version: 6.00 Build 0)  -->
<svg version="1.1" xmlns="http://www.w3.org/2000/svg" xmlns:xlink="http://www.w3.org/1999/xlink" x="0px" y="0px"
	 viewBox="0 0 1100 389.14" style="enable-background:new 0 0 1100 389.14;" xml:space="preserve">
	<style type="text/css">
		.st0{fill:#E82231;}
		.st1{fill:#FCD111;}
		.st2{fill:#008852;}
		.st4{font-size:89.1135px;}
		.st5{font-size:57.2605px;}
		.st4, .st5{font-family: montserrat; text-align: justify;}
	</style>
	<g>
		<g>
			<text transform="matrix(1 0 0 1 390.9023 111.9182)">
				<tspan x="0" y="0" class="st4">AGENCE</tspan>
				<tspan x="0" y="106.94" class="st4">PÉNITENTIAIRE</tspan>
			</text>
			<g>
				<rect id="XMLID_977_" x="861.03" y="252.21" class="st0" width="237.11" height="14.04"/>
				<rect id="XMLID_976_" x="628.84" y="252.21" class="st1" width="232.2" height="14.04"/>
				<rect id="XMLID_975_" x="396.34" y="252.21" class="st2" width="232.35" height="14.04"/>
			</g>
			<text transform="matrix(1 0 0 1 393.7021 346.864)" class="st3 st5">RÉPUBLIQUE DU BÉNIN</text>
		</g>
		<path class="st0" d="M68.46,192.24c0,0,38.49,72.28,61.08,97.75c-35.15-74.54-59.23-121.8-59.23-121.8S36.27,225.3,9.25,284.76C15.67,279.33,68.46,192.24,68.46,192.24z M0,292.16c5.09,35.62,42.63,55.27,66.61,55.51c29.2,0.29,63.84-28.22,66.61-55.51C101.3,341.19,25.9,334.25,0,292.16z"/>
		<path class="st0" d="M338.6,284.76c-27.01-59.46-61.06-116.57-61.06-116.57s-24.07,47.27-59.23,121.8c22.59-25.47,61.08-97.75,61.08-97.75S332.19,279.33,338.6,284.76z M214.63,292.16c2.78,27.29,37.41,55.8,66.61,55.51c23.98-0.24,61.52-19.89,66.61-55.51C321.95,334.25,246.55,341.19,214.63,292.16z"/>
		<path class="st2" d="M212.78,157.09c0,0-11.1-4.16-11.1,1.85c0,6.01-24.05,222.04-24.05,222.04s-27.75-214.17-25.9-223.89c-7.25,0-17.94,3.77-31.57,6.85c-0.35,8.5-0.68,19.3-0.06,19.84c2.05,2.59,3.06,5.46,3.05,8.63c0.47,4.28,2.27,7.97,5.94,10.18c3.39,2.05,5.52,4.64,6.6,8.43c0.66,2.86,0.89,5.74,0.68,8.64c1.03,5.25,0.26,10.47-0.16,15.69c-0.23,2.91-0.19,5.82,0.88,8.53c0.01,5.71-0.01,11.43-0.07,17.14c0.35,0.68,0.39,1.58,0.39,2.38c-0.03,24.34-0.12,48.69-0.07,73.03c0,2.47-0.42,3.62-3.15,3.56c-2.06-0.05-2.56,1-1.78,2.98c0.52,1.3,1.2,2.54,1.85,3.79c1.63,3.13,2.29,6.23,0.89,9.75c-1.51,3.79-1.35,7.94,1.53,10.84c2.21,2.23,4.49,4.38,6.5,6.81c0.93,1.12,1.6,2.22,1.91,3.66c0.61,2.89,1.54,5.7,2.75,8.41c4.72,3.56,10.14,3.85,16.24,0.86c6.26-1.28,12.45-1.24,18.71-0.25c7.18,1.13,14.3,0.65,21.34-1.15c3.48-0.89,4.14-1.74,3.39-5.35c-0.42-2.04-0.02-3.58,1.44-5.01c1.41-1.38,2.22-3.09,1.19-5.01c-0.95-1.77-0.62-3.17,0.57-4.67c1.29-1.63,2.37-3.95,1.06-5.53c-2.49-2.98-2.69-6.15-2.31-9.64c0.03-0.28-0.08-0.59-0.17-0.87c-1.49-4.45,0.51-8.54,1.61-12.62c0.67-2.47,1.12-4.56-0.43-6.69c-1.27-3.04-1.61-6.22-1.03-9.53c0.01-4.63,1.34-8.65,0.58-13.36c-3.21-19.93,5.63-45.04,0.86-63.26c-1.21-4.6-0.01-9.25-0.25-13.88c-0.18-3.55,1-7.42,1.85-11.08c1.14-4.94,1.24-4.92,6.34-4.84c0.59,0.01,1.18,0,2.2,0c3.15,0.13,6.68,0.04,10-1.58c1.63-0.79,2.43-1.92,2.5-3.8c0.12-2.8,1.58-5.27,2.66-7.75c1.26-2.93,1.17-5.79-0.26-8.57c-0.77-2.34-0.48-4.29,1.59-5.91c1.86-1.46,3.54-3.16,4.63-5.32c1.32-2.63,3.43-4.36,6.08-5.59c-0.84,0.39,4.79-5.4,9.07-9.65C221.52,166.41,212.78,157.09,212.78,157.09z"/>
		<path class="st2" d="M279.16,108.95c-4.17-3.84-4.81-5.81-2.78-11.08c0.62-1.61,0.8-3.14,0.03-4.71c0.08-4.54-1.15-8.55-3.67-12.05c-12.34-5.12-19.83-25.16-5.56-32.88c1.19-0.64,1.33-1.82,0.11-2.7c-1.24-0.89-2-2.15-2.89-3.33c-3.32-4.42-6.95-8.35-13.17-8.08c-2.39,0.1-3.56-1.26-4.1-3.49c-0.66-2.74-1.42-5.49-3.29-7.69c-2.67-3.16-5.42-6.27-8.75-8.78c-0.78-0.59-1.48-1.23-1.94-2.1c-1.23-2.35-3.14-4.1-5.15-5.75c-0.92-0.76-1.85-1.52-2.42-2.57c-1.87-3.46-13.96-6.27-15.82-0.12c-4.49,2.84-9.6,3.61-15.34,2.31c-9.37,3.22-4.17,9.65-2.6,16.83c0.28,1.28,0.06,2.47-0.97,3.21c-2.98,2.13-3.47,5.27-4.43,8.54c-3.21,10.36-9.84,18.11-19.9,23.25c1.19-0.87-27.6,2.2-22.13,1.3c-1.95,0.32-3.58-0.22-4.92-1.83c-1.86-2.24-4.3-3.3-7.28-2.94c-3.7,0.46-8.45,4.35-9.3,7.99c0.72-3.07-17.86,13.53-13.08,11.63c-1.4,2.73-3.37,4.84-5.91,6.32c-4.41-0.76-7.13,0.58-9.29,4.52c-1.73,3.15-2.85,6.55-3.05,10.12c-0.16,2.87-1.22,5.11-3.46,6.85c-2.55,1.98-4.13,19.25-4.76,22.26c-1.29,6.14,23.55,20.62,32.75,25.97c19.18-9.26,39.6-23.36,52.31-44.67c8.79,1.39,12.03,1.85,20.35,0c12.51,13.35,18.28,33.47,75.61,52.9c0.94-1.59,1.31-3.31,0.85-5.28c-0.36-1.52-0.17-19.36,0.09-19.82c0.54-0.98,1.01-1.97,0.96-3.13c-0.1-2.19,0.96-3.05,3.05-2.34c8.54,2.89,9.33,1.7,11.85-9.11C281.93,115.14,281.98,111.55,279.16,108.95z"/>
		<path class="st0" d="M120.61,154.24c0.06-1.05-0.42-1.77-1.32-2.38c-0.39-0.26-1.55-0.94-3.22-1.91c-22.03,10.64-42.42,14.9-47.61,16.39c20.07,3.31,37.48,0.82,51.7-2.4C120.43,157.31,120.73,152.08,120.61,154.24z"/>
		<path class="st1" d="M177.63,380.97c0,0,24.05-216.02,24.05-222.04c0-6.01,11.1-1.85,11.1-1.85s8.73,9.32,44.52,9.11c2.6-2.57,4.7-4.58,4.57-4.3c0.44-0.92,1.06-1.78,1.7-2.59c0.29-0.37,0.54-0.75,0.77-1.13c-57.33-19.43-63.09-39.55-75.61-52.9c-8.33,1.85-11.56,1.39-20.35,0c-12.7,21.32-33.12,35.41-52.31,44.67c1.67,0.97,2.83,1.64,3.22,1.91c0.9,0.6,1.37,1.32,1.32,2.38c0.12-2.16-0.17,3.07-0.45,9.71c13.63-3.09,24.32-6.85,31.57-6.85C149.87,166.8,177.63,380.97,177.63,380.97z"/>
		<circle class="st1" cx="177.63" cy="78.45" r="24.98"/>
		<polygon class="st2" points="189.66,105.28 178.55,147.84 169.3,105.28 167.45,105.28 178.55,151.54 191.51,105.28"/>
		<path class="st0" fill="" d="M261.87,161.9c0.13-0.28-1.97,1.72-4.57,4.3c7.85-0.05,16.99-0.55,27.64-1.71c-7.54-2.09-14.37-4.2-20.61-6.31c-0.23,0.38-0.48,0.76-0.77,1.13C262.93,160.12,262.31,160.98,261.87,161.9z"/>
	</g>
</svg>
